<?xml version="1.0" encoding="UTF-8"?>
<!DOCTYPE svg PUBLIC "-//W3C//DTD SVG 1.1//EN" "http://www.w3.org/Graphics/SVG/1.1/DTD/svg11.dtd">
<svg xmlns="http://www.w3.org/2000/svg" version="1.1" width="22px" height="22px" style="shape-rendering:geometricPrecision; text-rendering:geometricPrecision; image-rendering:optimizeQuality; fill-rule:evenodd; clip-rule:evenodd" xmlns:xlink="http://www.w3.org/1999/xlink">
<g><path style="opacity:0.428" fill="#4074d8" d="M 6.5,-0.5 C 9.16667,-0.5 11.8333,-0.5 14.5,-0.5C 15.1667,0.166667 15.8333,0.833333 16.5,1.5C 16.5,2.16667 16.5,2.83333 16.5,3.5C 14.4496,3.03876 12.4496,2.37209 10.5,1.5C 4.80015,2.02041 2.30015,5.02041 3,10.5C 4.01127,11.3366 5.17793,11.67 6.5,11.5C 6.5,12.5 6.5,13.5 6.5,14.5C 5.29049,14.9321 4.29049,15.5987 3.5,16.5C 2.60895,15.8902 1.60895,15.5569 0.5,15.5C 0.5,14.8333 0.166667,14.5 -0.5,14.5C -0.5,11.8333 -0.5,9.16667 -0.5,6.5C 1.5,3.83333 3.83333,1.5 6.5,-0.5 Z"/></g>
<g><path style="opacity:0.023" fill="#646564" d="M 19.5,3.5 C 20.1667,3.83333 20.8333,4.16667 21.5,4.5C 21.5,5.16667 21.5,5.83333 21.5,6.5C 20.0937,6.02694 19.427,5.02694 19.5,3.5 Z"/></g>
<g><path style="opacity:1" fill="#c0d0f1" d="M 16.5,3.5 C 17.6005,4.60486 18.2671,5.93819 18.5,7.5C 17.1667,7.5 16.5,8.16667 16.5,9.5C 14.8818,7.21499 12.8818,5.21499 10.5,3.5C 8.71219,5.79081 6.71219,7.95747 4.5,10C 5.4158,10.2784 6.08247,10.7784 6.5,11.5C 5.17793,11.67 4.01127,11.3366 3,10.5C 2.30015,5.02041 4.80015,2.02041 10.5,1.5C 12.4496,2.37209 14.4496,3.03876 16.5,3.5 Z"/></g>
<g><path style="opacity:1" fill="#f7fafe" d="M 16.5,9.5 C 15.1937,11.2452 14.1937,13.2452 13.5,15.5C 12.5713,14.3112 12.238,12.9778 12.5,11.5C 11.5,11.5 10.5,11.5 9.5,11.5C 9.5,12.8333 9.5,14.1667 9.5,15.5C 8.20895,15.7373 7.20895,15.404 6.5,14.5C 6.5,13.5 6.5,12.5 6.5,11.5C 6.08247,10.7784 5.4158,10.2784 4.5,10C 6.71219,7.95747 8.71219,5.79081 10.5,3.5C 12.8818,5.21499 14.8818,7.21499 16.5,9.5 Z"/></g>
<g><path style="opacity:1" fill="#4082fc" d="M 18.5,7.5 C 19.6225,9.28841 19.7891,11.2884 19,13.5C 17.9887,14.3366 16.8221,14.67 15.5,14.5C 15.4802,12.857 16.1468,11.5237 17.5,10.5C 17.3764,9.89333 17.0431,9.55999 16.5,9.5C 16.5,8.16667 17.1667,7.5 18.5,7.5 Z"/></g>
<g><path style="opacity:0.071" fill="#636467" d="M 21.5,13.5 C 21.5,14.8333 21.5,16.1667 21.5,17.5C 19.8333,18.5 18.5,19.8333 17.5,21.5C 16.1667,21.5 14.8333,21.5 13.5,21.5C 17.1667,19.8333 19.8333,17.1667 21.5,13.5 Z"/></g>
<g><path style="opacity:1" fill="#7ea3ec" d="M 16.5,9.5 C 17.0431,9.55999 17.3764,9.89333 17.5,10.5C 16.1468,11.5237 15.4802,12.857 15.5,14.5C 17.6323,16.3938 16.9657,17.8938 13.5,19C 9.67297,19.9761 6.33964,19.1428 3.5,16.5C 4.29049,15.5987 5.29049,14.9321 6.5,14.5C 7.20895,15.404 8.20895,15.7373 9.5,15.5C 9.5,14.1667 9.5,12.8333 9.5,11.5C 10.5,11.5 11.5,11.5 12.5,11.5C 12.238,12.9778 12.5713,14.3112 13.5,15.5C 14.1937,13.2452 15.1937,11.2452 16.5,9.5 Z"/></g>
<g><path style="opacity:0.023" fill="#646564" d="M 3.5,19.5 C 5.02694,19.427 6.02694,20.0937 6.5,21.5C 5.83333,21.5 5.16667,21.5 4.5,21.5C 4.16667,20.8333 3.83333,20.1667 3.5,19.5 Z"/></g>
<g><path style="opacity:0.849" fill="#406abf" d="M 16.5,1.5 C 18.0269,1.42702 19.0269,2.09368 19.5,3.5C 19.427,5.02694 20.0937,6.02694 21.5,6.5C 21.5,8.83333 21.5,11.1667 21.5,13.5C 19.8333,17.1667 17.1667,19.8333 13.5,21.5C 11.1667,21.5 8.83333,21.5 6.5,21.5C 6.02694,20.0937 5.02694,19.427 3.5,19.5C 2.02561,18.5637 1.02561,17.2303 0.5,15.5C 1.60895,15.5569 2.60895,15.8902 3.5,16.5C 6.33964,19.1428 9.67297,19.9761 13.5,19C 16.9657,17.8938 17.6323,16.3938 15.5,14.5C 16.8221,14.67 17.9887,14.3366 19,13.5C 19.7891,11.2884 19.6225,9.28841 18.5,7.5C 18.2671,5.93819 17.6005,4.60486 16.5,3.5C 16.5,2.83333 16.5,2.16667 16.5,1.5 Z"/></g>
</svg>
