<?xml version="1.0" encoding="UTF-8"?>
<!DOCTYPE svg PUBLIC "-//W3C//DTD SVG 1.1//EN" "http://www.w3.org/Graphics/SVG/1.1/DTD/svg11.dtd">
<svg xmlns="http://www.w3.org/2000/svg" version="1.1" width="22px" height="22px" style="shape-rendering:geometricPrecision; text-rendering:geometricPrecision; image-rendering:optimizeQuality; fill-rule:evenodd; clip-rule:evenodd" xmlns:xlink="http://www.w3.org/1999/xlink">
<g><path style="opacity:0.428" fill="#4376db" d="M 6.5,-0.5 C 9.16667,-0.5 11.8333,-0.5 14.5,-0.5C 15.1667,0.166667 15.8333,0.833333 16.5,1.5C 16.5,2.16667 16.5,2.83333 16.5,3.5C 12.8004,2.24197 9.13372,2.24197 5.5,3.5C 2.78198,5.38174 2.11532,7.71507 3.5,10.5C 5.37173,12.0615 7.70506,13.0615 10.5,13.5C 10.3764,14.1067 10.0431,14.44 9.5,14.5C 6.91791,14.0254 4.91791,14.6921 3.5,16.5C 2.60895,15.8902 1.60895,15.5569 0.5,15.5C 0.5,14.8333 0.166667,14.5 -0.5,14.5C -0.5,11.8333 -0.5,9.16667 -0.5,6.5C 1.5,3.83333 3.83333,1.5 6.5,-0.5 Z"/></g>
<g><path style="opacity:1" fill="#cbd9f4" d="M 16.5,3.5 C 17.1408,4.48224 17.8075,5.48224 18.5,6.5C 17.3881,7.26515 16.7214,8.26515 16.5,9.5C 15.0384,8.54227 13.7051,7.37561 12.5,6C 11.2506,5.25988 10.2506,5.42654 9.5,6.5C 7.80081,6.66018 6.13414,6.49351 4.5,6C 5.25244,5.32924 5.58577,4.4959 5.5,3.5C 9.13372,2.24197 12.8004,2.24197 16.5,3.5 Z"/></g>
<g><path style="opacity:1" fill="#f5f8fe" d="M 16.5,9.5 C 16.6085,11.5138 15.9418,13.1805 14.5,14.5C 13.1851,15.4756 11.8518,16.4756 10.5,17.5C 9.61432,16.675 9.28099,15.675 9.5,14.5C 10.0431,14.44 10.3764,14.1067 10.5,13.5C 7.70506,13.0615 5.37173,12.0615 3.5,10.5C 5.96864,9.6829 8.63531,9.1829 11.5,9C 10.6195,8.2917 9.9528,7.45837 9.5,6.5C 10.2506,5.42654 11.2506,5.25988 12.5,6C 13.7051,7.37561 15.0384,8.54227 16.5,9.5 Z"/></g>
<g><path style="opacity:1" fill="#a6bfef" d="M 5.5,3.5 C 5.58577,4.4959 5.25244,5.32924 4.5,6C 6.13414,6.49351 7.80081,6.66018 9.5,6.5C 9.9528,7.45837 10.6195,8.2917 11.5,9C 8.63531,9.1829 5.96864,9.6829 3.5,10.5C 2.11532,7.71507 2.78198,5.38174 5.5,3.5 Z"/></g>
<g><path style="opacity:0.071" fill="#5d647a" d="M 19.5,3.5 C 20.1667,3.83333 20.8333,4.16667 21.5,4.5C 21.5,8.83333 21.5,13.1667 21.5,17.5C 19.8333,18.5 18.5,19.8333 17.5,21.5C 13.1667,21.5 8.83333,21.5 4.5,21.5C 4.16667,20.8333 3.83333,20.1667 3.5,19.5C 17.8333,23.1667 23.1667,17.8333 19.5,3.5 Z"/></g>
<g><path style="opacity:1" fill="#80a3e8" d="M 9.5,14.5 C 9.28099,15.675 9.61432,16.675 10.5,17.5C 11.8518,16.4756 13.1851,15.4756 14.5,14.5C 18.158,15.8554 17.8246,17.3554 13.5,19C 9.67297,19.9761 6.33964,19.1428 3.5,16.5C 4.91791,14.6921 6.91791,14.0254 9.5,14.5 Z"/></g>
<g><path style="opacity:0.849" fill="#4070cf" d="M 16.5,1.5 C 18.0269,1.42702 19.0269,2.09368 19.5,3.5C 23.1667,17.8333 17.8333,23.1667 3.5,19.5C 2.02561,18.5637 1.02561,17.2303 0.5,15.5C 1.60895,15.5569 2.60895,15.8902 3.5,16.5C 6.33964,19.1428 9.67297,19.9761 13.5,19C 17.8246,17.3554 18.158,15.8554 14.5,14.5C 15.9418,13.1805 16.6085,11.5138 16.5,9.5C 16.7214,8.26515 17.3881,7.26515 18.5,6.5C 17.8075,5.48224 17.1408,4.48224 16.5,3.5C 16.5,2.83333 16.5,2.16667 16.5,1.5 Z"/></g>
</svg>
