<?xml version="1.0" encoding="UTF-8"?>
<!DOCTYPE svg PUBLIC "-//W3C//DTD SVG 1.1//EN" "http://www.w3.org/Graphics/SVG/1.1/DTD/svg11.dtd">
<svg xmlns="http://www.w3.org/2000/svg" version="1.1" width="22px" height="22px" style="shape-rendering:geometricPrecision; text-rendering:geometricPrecision; image-rendering:optimizeQuality; fill-rule:evenodd; clip-rule:evenodd" xmlns:xlink="http://www.w3.org/1999/xlink">
<g><path style="opacity:0.428" fill="#4375d9" d="M 6.5,-0.5 C 9.16667,-0.5 11.8333,-0.5 14.5,-0.5C 15.1667,0.166667 15.8333,0.833333 16.5,1.5C 16.5,2.16667 16.5,2.83333 16.5,3.5C 12.4262,2.00958 8.42625,2.17625 4.5,4C 1.99791,6.70085 1.99791,9.20085 4.5,11.5C 5.16667,12.5 5.83333,13.5 6.5,14.5C 5.79105,15.404 4.79105,15.7373 3.5,15.5C 2.5,15.5 1.5,15.5 0.5,15.5C 0.5,14.8333 0.166667,14.5 -0.5,14.5C -0.5,11.8333 -0.5,9.16667 -0.5,6.5C 1.5,3.83333 3.83333,1.5 6.5,-0.5 Z"/></g>
<g><path style="opacity:1" fill="#becff0" d="M 16.5,3.5 C 17.6005,4.60486 18.2671,5.93819 18.5,7.5C 17.1667,7.5 16.5,8.16667 16.5,9.5C 14.1432,9.66331 11.8098,9.49665 9.5,9C 11.0368,7.89037 11.7035,6.39037 11.5,4.5C 8.21124,5.78861 5.8779,8.12194 4.5,11.5C 1.99791,9.20085 1.99791,6.70085 4.5,4C 8.42625,2.17625 12.4262,2.00958 16.5,3.5 Z"/></g>
<g><path style="opacity:1" fill="#fafbfe" d="M 16.5,9.5 C 16.5,10.5 16.5,11.5 16.5,12.5C 14.1432,12.3367 11.8098,12.5034 9.5,13C 10.3805,13.7083 11.0472,14.5416 11.5,15.5C 11.2172,16.2891 10.7172,16.9558 10,17.5C 8.9609,16.2899 7.79423,15.2899 6.5,14.5C 5.83333,13.5 5.16667,12.5 4.5,11.5C 5.8779,8.12194 8.21124,5.78861 11.5,4.5C 11.7035,6.39037 11.0368,7.89037 9.5,9C 11.8098,9.49665 14.1432,9.66331 16.5,9.5 Z"/></g>
<g><path style="opacity:1" fill="#4e89fb" d="M 18.5,7.5 C 19.9256,10.2992 19.5923,12.9658 17.5,15.5C 15.5,15.5 13.5,15.5 11.5,15.5C 11.0472,14.5416 10.3805,13.7083 9.5,13C 11.8098,12.5034 14.1432,12.3367 16.5,12.5C 16.5,11.5 16.5,10.5 16.5,9.5C 16.5,8.16667 17.1667,7.5 18.5,7.5 Z"/></g>
<g><path style="opacity:0.071" fill="#5d647a" d="M 19.5,3.5 C 20.1667,3.83333 20.8333,4.16667 21.5,4.5C 21.5,8.83333 21.5,13.1667 21.5,17.5C 19.8333,18.5 18.5,19.8333 17.5,21.5C 13.1667,21.5 8.83333,21.5 4.5,21.5C 4.16667,20.8333 3.83333,20.1667 3.5,19.5C 17.8333,23.1667 23.1667,17.8333 19.5,3.5 Z"/></g>
<g><path style="opacity:1" fill="#87a8e6" d="M 6.5,14.5 C 7.79423,15.2899 8.9609,16.2899 10,17.5C 10.7172,16.9558 11.2172,16.2891 11.5,15.5C 13.5,15.5 15.5,15.5 17.5,15.5C 12.8333,20.8333 8.16667,20.8333 3.5,15.5C 4.79105,15.7373 5.79105,15.404 6.5,14.5 Z"/></g>
<g><path style="opacity:0.631" fill="#3e6bc3" d="M 16.5,1.5 C 18.0269,1.42702 19.0269,2.09368 19.5,3.5C 23.1667,17.8333 17.8333,23.1667 3.5,19.5C 2.02561,18.5637 1.02561,17.2303 0.5,15.5C 1.5,15.5 2.5,15.5 3.5,15.5C 8.16667,20.8333 12.8333,20.8333 17.5,15.5C 19.5923,12.9658 19.9256,10.2992 18.5,7.5C 18.2671,5.93819 17.6005,4.60486 16.5,3.5C 16.5,2.83333 16.5,2.16667 16.5,1.5 Z"/></g>
</svg>
